<?xml version="1.0" encoding="UTF-8" standalone="no"?>
<!-- Created with Inkscape (http://www.inkscape.org/) -->

<svg
   xmlns:dc="http://purl.org/dc/elements/1.1/"
   xmlns:cc="http://creativecommons.org/ns#"
   xmlns:rdf="http://www.w3.org/1999/02/22-rdf-syntax-ns#"
   xmlns:svg="http://www.w3.org/2000/svg"
   xmlns="http://www.w3.org/2000/svg"
   xmlns:sodipodi="http://sodipodi.sourceforge.net/DTD/sodipodi-0.dtd"
   xmlns:inkscape="http://www.inkscape.org/namespaces/inkscape"
   width="210mm"
   height="297mm"
   viewBox="0 0 744.09448819 1052.3622047"
   id="svg4248"
   version="1.1"
   inkscape:version="0.91 r13725"
   sodipodi:docname="belly.svg">
  <defs
     id="defs4250">
    <inkscape:path-effect
       effect="spiro"
       id="path-effect4188"
       is_visible="true" />
  </defs>
  <sodipodi:namedview
     id="base"
     pagecolor="#ffffff"
     bordercolor="#666666"
     borderopacity="1.0"
     inkscape:pageopacity="0.0"
     inkscape:pageshadow="2"
     inkscape:zoom="1.8216162"
     inkscape:cx="372.04724"
     inkscape:cy="526.1811"
     inkscape:document-units="px"
     inkscape:current-layer="g4322"
     showgrid="false"
     inkscape:window-width="1918"
     inkscape:window-height="2110"
     inkscape:window-x="0"
     inkscape:window-y="0"
     inkscape:window-maximized="0" />
  <metadata
     id="metadata4253">
    <rdf:RDF>
      <cc:Work
         rdf:about="">
        <dc:format>image/svg+xml</dc:format>
        <dc:type
           rdf:resource="http://purl.org/dc/dcmitype/StillImage" />
        <dc:title></dc:title>
      </cc:Work>
    </rdf:RDF>
  </metadata>
  <g
     inkscape:label="Layer 1"
     inkscape:groupmode="layer"
     id="layer1">
    <g
       id="g4322"
       transform="matrix(0.9381985,-0.34609764,0.34609764,0.9381985,-76.685931,173.60008)">
      <g
         id="g4179"
         transform="translate(-147.67297,132.05092)">
        <path
           sodipodi:nodetypes="cccccc"
           inkscape:connector-curvature="0"
           id="rect3336"
           d="m 375.8591,85.491074 262.98875,0.535553 90.00505,77.119673 -0.53555,540.55107 -352.45825,0 z"
           style="fill:none;fill-rule:evenodd;stroke:#000000;stroke-width:1.87244534px;stroke-linecap:butt;stroke-linejoin:miter;stroke-opacity:1" />
        <rect
           y="564.29193"
           x="239.01022"
           height="139.51982"
           width="137.30615"
           id="rect4138-3"
           style="fill:none;stroke:#000000;stroke-width:2.20526981;stroke-opacity:1" />
        <ellipse
           ry="70.210472"
           rx="69.096489"
           cy="634.05176"
           cx="234.57272"
           id="path4140-6"
           style="fill:none;stroke:#000000;stroke-width:1.31132841;stroke-opacity:1" />
        <rect
           y="85.550629"
           x="238.88039"
           height="139.51982"
           width="137.30615"
           id="rect4138-3-7"
           style="fill:none;stroke:#000000;stroke-width:2.20526981;stroke-opacity:1" />
        <ellipse
           ry="70.210472"
           rx="69.096489"
           cy="155.31046"
           cx="234.44289"
           id="path4140-6-5"
           style="fill:none;stroke:#000000;stroke-width:1.31132841;stroke-opacity:1" />
      </g>
      <path
         style="fill:none;fill-rule:evenodd;stroke:#000000;stroke-width:1px;stroke-linecap:butt;stroke-linejoin:miter;stroke-opacity:1"
         d="m 659.34998,139.00982 c -0.53269,1.17192 -1.56651,2.06191 -2.14221,3.21332 -0.68212,1.36423 -1.05913,2.86083 -1.60666,4.28442 -4.1673,11.40454 -19.17253,13.38884 -28.91988,13.38884 l -0.53555,0 c -0.17852,0 -0.45572,-0.15968 -0.53556,0 -1.68473,7.41866 31.0382,5.87648 34.81097,5.89108 l 2.14221,0 c 0.17852,0 0.53555,-0.17852 0.53555,0 0,0.17852 -0.53555,-0.17852 -0.53555,0 0,0.39918 0.40932,0.69242 0.53555,1.07111 0.11205,0.33614 0,1.71107 0,2.14221 -0.87153,7.25104 -24.22442,9.10441 -35.34651,9.10441 l -6.42664,0 -1.07111,0 c -0.17852,0 -0.40932,-0.12623 -0.53555,0 -0.12623,0.12623 0,0.35703 0,0.53555 -0.62725,7.46213 11.64732,6.75236 11.78217,11.78217 -0.18746,15.3593 -28.58133,15.53105 -49.2709,15.53105 -0.45966,0 -3.99937,0.095 -4.28443,0 -0.2395,-0.0798 -0.32549,-0.39551 -0.53555,-0.53555 -0.33214,-0.22143 -0.69241,-0.40933 -1.07111,-0.53556 -0.16935,-0.0564 -0.40932,0.12623 -0.53555,0 -0.12623,-0.12623 -0.17852,-0.53555 0,-0.53555 0.25246,0 0.53555,0.28309 0.53555,0.53555 0,0.17852 -0.45572,-0.15967 -0.53555,0 -0.15967,0.31934 0,0.71407 0,1.07111 0.43946,13.1843 37.14321,20.86391 39.63094,20.88658 -1.34516,-0.16571 -1.08851,0.23454 0,0.53555 0.19805,0.29707 0,0.71407 0,1.07111 l 0,4.81998 0,1.0711 c 0,0.17852 0.0798,0.37588 0,0.53556 -0.64253,1.28506 -1.49881,-0.10785 -2.14221,0.53555 -9.90493,17.92211 -54.12565,13.41443 -54.09088,31.59764 0,0.17852 -0.12623,0.40932 0,0.53556 0.12623,0.12623 0.35703,0 0.53555,0 12.29674,0.20203 23.59199,1.36749 23.56435,8.56885 -2.36803,1.18401 -1.57769,0.50658 -2.67777,1.60666 -0.35704,0.35703 -0.65099,0.79102 -1.07111,1.07111 -14.81972,11.4074 -30.55902,26.78327 -30.55902,43.28514 0,0 15.13827,-9.2122 16.63464,-9.54529 0.65954,-0.003 1.65156,0 2.14221,0 4.92122,43.38619 -14.76049,50.88118 1.60666,79.79744 18.72943,9.17784 40.7714,9.60875 58.37531,9.63996 l -0.53556,0 -0.53555,0 c -0.17852,0 -0.37588,0.0798 -0.53555,0 -11.831,-2.23407 -27.25221,-23.10496 -31.59765,-27.84877 -0.88398,-2.46827 -0.54222,-7.77202 -0.53555,-11.24662 0.22142,-0.33214 0.72882,-0.33018 1.07111,-0.53555 29.26536,-16.93392 55.16199,-33.36807 55.16199,-57.30421 l 0,-5.35553 0,-1.07111 c 0,-0.17852 0.12623,-0.40932 0,-0.53555 -3.08087,-1.74262 -18.27317,8.21713 -22.82797,6.69442 -0.84808,-4.96322 -2.38747,-13.61873 -2.34304,-20.88658 0.0678,-3.1689 1.60666,-9.37218 1.60666,-9.37218 l 0,-3.21332 c 0,-0.35704 -0.15967,-0.75177 0,-1.07111 8.85771,-18.31628 43.07479,14.5215 56.16533,23.89478 0.88198,-3.65029 3.16818,-9.20903 3.28109,-9.43484 5.33196,-8.12885 6.42664,-15.69951 6.42664,-33.2043 l 0,-0.53556 c 0,-0.17851 0.0798,-0.37588 0,-0.53555 -0.11291,-0.22581 -0.35704,-0.35703 -0.53556,-0.53555 -2.7373,-4.76668 -10.7153,-5.62096 -12.41239,-7.55993 -1.30892,-1.38903 -4.08373,-0.53824 -4.72531,-2.08003 -0.52535,-0.78802 -0.65457,-0.53555 -1.60666,-0.53555 -0.53556,0 -1.09859,0.16935 -1.60666,0 -0.23951,-0.0798 -0.78048,-0.47433 -0.53556,-0.53556 0.86594,-0.21648 1.80252,0.17505 2.67777,0 0.17505,-0.035 -0.15967,-0.45572 0,-0.53555 0.31934,-0.15967 0.72473,0.0866 1.07111,0 0.38726,-0.0968 0.68384,-0.43874 1.0711,-0.53555 10.39907,-1.03664 39.62849,-8.29487 39.38498,-24.09433 0,-0.17852 -0.12623,-0.40932 0,-0.53556 0.12623,-0.12623 0.40933,0.12624 0.53556,0 0.25246,-0.25246 -0.11291,-0.73239 0,-1.0711 0.12623,-0.3787 0.35703,-0.71407 0.53555,-1.07111 0.17852,-0.35703 0.71407,-0.71407 0.53555,-1.07111 -0.15967,-0.31934 -0.71407,0 -1.0711,0 l -0.53556,0 -12.07176,-3.21889 c -9.6771,-0.30415 -11.48633,0.27871 -4.28443,0 0.42013,-0.28008 2.89165,-3.68549 3.34327,-3.9113 0.31934,-0.15967 1.07111,0 1.07111,0 0.38726,-0.0968 0.68385,-0.43874 1.0711,-0.53555 0.34638,-0.0866 0.75177,0.15967 1.07111,0 9.53815,-0.86109 14.42754,-22.07566 17.54331,-26.07968 0.20538,-0.34229 0.35704,-0.71407 0.53556,-1.07111 0.93229,-2.37676 2.28408,-3.66968 2.14221,-6.42664 0,-0.35703 0.15967,-0.75176 0,-1.0711 -0.0798,-0.15968 -0.35704,0 -0.53555,0 -11.70501,3.7404 -6.38592,4.81997 -25.70656,4.81997 l -2.14222,0 c -0.17851,0 -0.53555,0.17852 -0.53555,0 0,-0.17851 0.40932,0.12624 0.53555,0 0.25247,-0.25246 -0.25246,-0.81864 0,-1.0711 1.10808,-1.10808 -0.0433,1.69329 1.07111,-0.53556 0.0798,-0.15967 -0.0798,-0.37588 0,-0.53555 10.00576,-20.34406 21.95769,-27.79228 21.95769,-49.80645 l 0,-6.42664 0,-0.53556 c 0,-0.17851 0.12623,-0.40932 0,-0.53555 -0.45514,-0.45513 -1.15153,0.61597 -1.60666,1.07111 -3.03648,13.24296 -18.41754,20.02419 -22.49324,24.09989 -0.002,8.1e-4 -1.60615,-5.1e-4 -1.60666,0 -0.12623,0.12624 0.15967,0.45572 0,0.53556 -1.42814,0.71407 -1.07111,-1.07111 -1.07111,1.0711 l 0,-0.53555 1.51477,-6.30505 0.0947,-9.00974 -1.60945,-13.60509 -0.94673,-4.81998 c -0.11948,-0.60829 -1.11122,-3.43038 -1.23076,-3.90851 -11.6343,-39.683596 -13.18239,-12.477266 -23.52907,-44.291276 -1.56831,-14.25509 -22.30809,-35.05323 -31.06209,-33.73985 10.2052,-0.0697 24.03296,54.5975 21.42214,49.27089 -1.49583,-3.8422 -7.93932,-23.22757 -19.27992,-23.56433 8.74414,13.59291 10.57717,16.44733 13.92438,31.06208 l 0,4.81998 0,0.53555 c 0,0.17852 0.12623,0.40932 0,0.53556 -0.12623,0.12623 -0.35703,0 -0.53555,0 l -10.66002,2.55618 -9.49609,0.75739 c -4.96072,2.65999 -12.63553,-11.35041 -12.51264,-12.95353 -0.47765,4.98778 2.22354,10.02982 4.07095,14.80336 4.5075,17.034896 41.68926,9.613286 43.05774,27.505346 0.1129,0.22581 0.42265,0.30974 0.53555,0.53555 1.00114,15.28031 -1.87699,4.85475 -8.0333,19.27992 z"
         id="path4190"
         inkscape:connector-curvature="0"
         sodipodi:nodetypes="csccsccsssscccssccccscsssccccscsccccccscccccccsccccccsccccsccccsccccscscccccccccsscccscccccccccsscsccccsscccccccccscccccccscscccccccc" />
      <g
         id="g4194"
         transform="matrix(0,1,-1,0,967.77553,-228.31076)">
        <path
           sodipodi:nodetypes="ccsssssssccsssscccccc"
           inkscape:connector-curvature="0"
           inkscape:original-d="m 446.11589,478.24908 -60.51753,-36.41762 c -22.45319,-1.48799 -4.76991,7.639 -24.63544,18.20881 -20.51747,10.91669 -74.44191,33.73986 -74.44191,33.73986 -4.37998,1.5359 -30.84192,17.72099 -35.34652,16.60216 -6.6652,-1.65548 -12.68449,-0.20431 -18.20881,-4.28443 -2.43694,-1.79986 -9.3393,-7.44193 -8.0333,-10.17551 0,0 84.09891,-50.55361 70.15748,-36.95318 -10.25861,10.00769 48.82438,-36.44352 58.37531,-47.12869 2.83786,-3.17487 -9.18096,-20.37783 -9.10441,-24.63546 -4.45547,-19.08 -53.39691,26.61408 -58.91086,35.34652 0,0 -79.80677,66.46429 -72.29969,38.02428 0,0 -10.44733,-5.42279 -12.85328,-6.96219 -10.76499,-6.88779 -8.50503,-11.6175 -11.24662,-24.09989 -0.95741,-4.35904 10.72176,-14.04098 12.31772,-18.20881 3.34527,-8.73615 66.23573,-33.53646 104.96845,-85.15298 245.57309,61.66181 17.28755,-16.94467 68.55082,-34.27541 15.29677,-5.65264 41.59459,18.38786 57.83975,19.81547 61.24157,9.47971 2.93333,2.16528 48.1998,47.1287 12.61175,12.5649 43.37982,26.2421 43.37982,26.2421 z"
           inkscape:path-effect="#path-effect4188"
           id="path4186"
           d="m 446.11589,478.24908 -60.51753,-36.41762 c -7.48768,6.97549 -15.77006,13.09726 -24.63544,18.20881 -23.62658,13.62248 -50.9537,19.88015 -74.44191,33.73986 -5.65807,3.33866 -11.06388,7.10268 -16.82946,10.25203 -5.76559,3.14935 -11.97982,5.69828 -18.51706,6.35013 -6.33677,0.63186 -12.98719,-0.63907 -18.20881,-4.28443 -3.59462,-2.5095 -6.42656,-6.09663 -8.0333,-10.17551 21.57583,-15.4074 45.24756,-27.87572 70.15748,-36.95318 12.47745,-4.54693 25.41874,-8.32106 36.62129,-15.45297 5.60128,-3.56595 10.72508,-7.97416 14.63895,-13.33811 3.91387,-5.36394 6.58233,-11.71896 7.11507,-18.33761 0.72497,-9.00694 -2.69635,-18.26464 -9.10441,-24.63546 l -58.91086,35.34652 -72.29969,38.02428 c -4.63652,-1.57265 -9.00308,-3.93787 -12.85328,-6.96219 -3.66534,-2.87911 -6.89168,-6.39732 -9.01063,-10.54871 -2.11896,-4.15138 -3.07948,-8.96724 -2.23599,-13.55118 0.67465,-3.66639 2.46244,-7.05652 4.70042,-10.03796 2.23799,-2.98145 4.92503,-5.59223 7.6173,-8.17085 32.57465,-31.19959 67.72217,-59.71212 104.96845,-85.15298 16.25638,-20.80929 42.14956,-33.75589 68.55082,-34.27541 20.79742,-0.40925 41.66246,6.73896 57.83975,19.81547 13.9096,17.73036 30.16138,33.621 48.1998,47.1287 13.5495,10.14627 28.10343,18.95049 43.37982,26.2421 l -78.19078,93.18627 z"
           style="fill:none;fill-rule:evenodd;stroke:#000000;stroke-width:1px;stroke-linecap:butt;stroke-linejoin:miter;stroke-opacity:1" />
        <path
           inkscape:connector-curvature="0"
           id="path4192"
           d="m 295.49397,334.5524 -68.51571,-89.4631 86.36841,76.68266 z"
           style="fill:none;fill-rule:evenodd;stroke:#000000;stroke-width:1.14150858px;stroke-linecap:butt;stroke-linejoin:miter;stroke-opacity:1" />
      </g>
      <ellipse
         ry="176.47548"
         rx="87.892815"
         cy="834.45923"
         cx="316.22839"
         id="path4282"
         style="fill:none;stroke:#000000;stroke-width:1.37972343;stroke-opacity:1" />
      <path
         inkscape:connector-curvature="0"
         id="path4286"
         d="m 227.53658,217.51471 88.10578,-243.976069 0,0 0,0"
         style="fill:none;fill-rule:evenodd;stroke:#000000;stroke-width:0.78535044px;stroke-linecap:butt;stroke-linejoin:miter;stroke-opacity:1" />
    </g>
  </g>
</svg>
