<?xml version="1.0" encoding="UTF-8" standalone="no"?>
<!-- Created with Inkscape (http://www.inkscape.org/) -->

<svg
   xmlns:dc="http://purl.org/dc/elements/1.1/"
   xmlns:cc="http://creativecommons.org/ns#"
   xmlns:rdf="http://www.w3.org/1999/02/22-rdf-syntax-ns#"
   xmlns:svg="http://www.w3.org/2000/svg"
   xmlns="http://www.w3.org/2000/svg"
   xmlns:sodipodi="http://sodipodi.sourceforge.net/DTD/sodipodi-0.dtd"
   xmlns:inkscape="http://www.inkscape.org/namespaces/inkscape"
   width="210mm"
   height="297mm"
   viewBox="0 0 744.09448819 1052.3622047"
   id="svg2"
   version="1.1"
   inkscape:version="0.91 r13725"
   sodipodi:docname="body.svg">
  <defs
     id="defs4">
    <inkscape:path-effect
       effect="spiro"
       id="path-effect4188"
       is_visible="true" />
  </defs>
  <sodipodi:namedview
     id="base"
     pagecolor="#ffffff"
     bordercolor="#666666"
     borderopacity="1.0"
     inkscape:pageopacity="0.0"
     inkscape:pageshadow="2"
     inkscape:zoom="1.8216162"
     inkscape:cx="372.04724"
     inkscape:cy="504.22258"
     inkscape:document-units="px"
     inkscape:current-layer="g4311"
     showgrid="false"
     inkscape:window-width="3838"
     inkscape:window-height="2110"
     inkscape:window-x="0"
     inkscape:window-y="0"
     inkscape:window-maximized="0" />
  <metadata
     id="metadata7">
    <rdf:RDF>
      <cc:Work
         rdf:about="">
        <dc:format>image/svg+xml</dc:format>
        <dc:type
           rdf:resource="http://purl.org/dc/dcmitype/StillImage" />
        <dc:title></dc:title>
      </cc:Work>
    </rdf:RDF>
  </metadata>
  <g
     inkscape:label="Layer 1"
     inkscape:groupmode="layer"
     id="layer1">
    <g
       id="g4198"
       transform="matrix(0,1,-1,0,971.53431,-76.718351)">
      <g
         id="g4311"
         transform="matrix(0.98171046,-0.19038006,0.19038006,0.98171046,-121.8698,107.68273)">
        <g
           id="g4179"
           transform="matrix(0,-1,1,0,360.36168,1115.4485)">
          <path
             sodipodi:nodetypes="cccccc"
             inkscape:connector-curvature="0"
             id="rect3336"
             d="m 375.8591,85.491074 262.98875,0.535553 90.00505,77.119673 -0.53555,540.55107 -352.45825,0 z"
             style="fill:none;fill-rule:evenodd;stroke:#000000;stroke-width:1.87244534px;stroke-linecap:butt;stroke-linejoin:miter;stroke-opacity:1" />
          <rect
             y="564.29193"
             x="239.01022"
             height="139.51982"
             width="137.30615"
             id="rect4138-3"
             style="fill:none;stroke:#000000;stroke-width:2.20526981;stroke-opacity:1" />
          <ellipse
             ry="70.210472"
             rx="69.096489"
             cy="634.05176"
             cx="234.57272"
             id="path4140-6"
             style="fill:none;stroke:#000000;stroke-width:1.31132841;stroke-opacity:1" />
          <rect
             y="85.550629"
             x="238.88039"
             height="139.51982"
             width="137.30615"
             id="rect4138-3-7"
             style="fill:none;stroke:#000000;stroke-width:2.20526981;stroke-opacity:1" />
          <ellipse
             ry="70.210472"
             rx="69.096489"
             cy="155.31046"
             cx="234.44289"
             id="path4140-6-5"
             style="fill:none;stroke:#000000;stroke-width:1.31132841;stroke-opacity:1" />
        </g>
        <g
           id="g4194"
           style="stroke-width:5;stroke-miterlimit:4;stroke-dasharray:none"
           transform="matrix(1.0508421,-0.00431298,-0.00431298,1.072246,-19.743977,-33.770716)">
          <path
             sodipodi:nodetypes="ccsssssssccsssscccccc"
             inkscape:connector-curvature="0"
             inkscape:original-d="m 446.50844,475.04443 -54.35505,-21.12045 c -24.77007,-1.77822 -9.98863,9.76902 -31.90403,22.40049 -22.63462,13.046 -64.98567,48.35416 -64.98567,48.35416 -4.83194,1.83548 -51.16213,13.1442 -56.13155,11.80714 -7.35297,-1.97839 -21.67397,-23.28466 -27.76833,-28.16061 -2.6884,-2.15093 -10.303,-8.89349 -8.86224,-12.16026 0,0 111.11956,-78.62297 77.39685,-44.16095 -11.51596,11.76842 44.11238,-23.41264 64.39891,-56.3212 20.50957,-33.27037 -18.69717,-17.92592 -18.61272,-23.014 -4.91522,-22.80159 -50.33795,25.37855 -56.42087,35.81426 -14.33397,-13.82923 -200.916351,-6.83829 -88.84101,59.31314 0,0 -11.52536,-6.48051 -14.17958,-8.32017 -11.8758,-8.23127 -9.38264,-13.88351 -12.40713,-28.80061 -1.0562,-5.20928 20.90901,-30.65186 22.66966,-35.63263 3.69046,-10.44015 73.07042,-40.0778 115.79987,-101.76219 270.91315,73.68903 -2.53088,4.63889 54.02212,-16.07224 16.8752,-6.75519 45.88663,21.97444 63.80808,23.68051 23.93063,3.36191 37.31265,39.93892 53.17342,56.32122 13.91312,15.0157 54.48671,39.48072 54.48671,39.48072 z"
             inkscape:path-effect="#path-effect4188"
             id="path4186"
             d="m 446.50844,475.04443 -54.35505,-21.12045 c -10.70123,7.37144 -21.33647,14.83867 -31.90403,22.40049 -21.95917,15.7133 -43.62606,31.83507 -64.98567,48.35416 -6.39288,8.18976 -15.74156,14.02053 -25.90854,16.15913 -10.16698,2.1386 -21.07247,0.56825 -30.22301,-4.35199 -11.71501,-6.29916 -19.93686,-17.40938 -27.76833,-28.16061 -2.95312,-4.05412 -5.9072,-8.10754 -8.86224,-12.16026 22.717,-19.40983 49.12885,-34.47986 77.39685,-44.16095 14.77112,-5.05874 30.29479,-8.77909 43.35508,-17.33512 6.53014,-4.27802 12.36481,-9.77908 16.31495,-16.51263 3.95013,-6.73355 5.9209,-14.75832 4.72888,-22.47345 -0.78924,-5.10824 -2.95317,-9.99746 -6.20353,-14.01643 -3.25037,-4.01897 -7.57895,-7.15751 -12.40919,-8.99757 l -56.42087,35.81426 -88.84101,59.31314 c -5.21019,-1.80959 -10.05852,-4.65445 -14.17958,-8.32017 -4.04868,-3.60134 -7.40352,-8.01082 -9.60952,-12.96007 -2.206,-4.94924 -3.24486,-10.44041 -2.79761,-15.84054 0.59488,-7.18269 3.77194,-13.96023 7.98648,-19.80682 4.21453,-5.84659 9.45182,-10.86821 14.68318,-15.82581 37.30735,-35.35501 75.94364,-69.30766 115.79987,-101.76219 15.81585,-10.67437 34.9434,-16.36505 54.02212,-16.07224 23.09047,0.35438 45.65771,9.40257 63.80808,23.68051 20.32055,15.98511 35.02735,37.90468 53.17342,56.32122 15.81424,16.04996 34.30975,29.45168 54.48671,39.48072 l -71.28744,78.35367 z"
             style="fill:none;fill-rule:evenodd;stroke:#000000;stroke-width:5;stroke-linecap:butt;stroke-linejoin:miter;stroke-miterlimit:4;stroke-dasharray:none;stroke-opacity:1" />
          <path
             sodipodi:nodetypes="cccc"
             inkscape:connector-curvature="0"
             id="path4192"
             d="m 251.67888,325.85566 -46.37736,-130.55724 105.05382,87.9899 z"
             style="fill:none;fill-rule:evenodd;stroke:#000000;stroke-width:5;stroke-linecap:butt;stroke-linejoin:miter;stroke-miterlimit:4;stroke-dasharray:none;stroke-opacity:1" />
        </g>
      </g>
      <path
         style="fill:none;fill-rule:evenodd;stroke:#000000;stroke-width:1px;stroke-linecap:butt;stroke-linejoin:miter;stroke-opacity:1"
         d="m 99.853562,928.41095 c 0,0 75.903198,6.52078 113.001798,0 38.1547,-6.70641 77.3999,-17.58225 109.2529,-39.63094 20.0921,-13.90782 37.5999,-33.43028 47.6642,-55.69755 14.1101,-31.2185 15.5472,-67.51324 14.46,-101.75512 -0.6133,-19.31641 -2.2047,-39.9826 -11.7822,-56.76865 -9.3312,-16.35441 -25.5151,-28.52623 -41.7732,-38.02428 -17.6941,-10.33695 -38.0816,-16.43443 -58.3753,-19.27992 -17.5163,-2.45605 -35.5276,-0.48094 -53.0197,2.14221 -20.8112,3.12089 -42.646,5.86734 -61.0531,16.0666 -14.3607,7.95715 -25.4349,21.07494 -35.8821,33.73986 -10.2111,12.37868 -24.079898,50.95937 -12.8533,83.54631 17.4869,50.75871 54.6264,48.1998 54.6264,48.1998 0,0 -34.9703,-37.90359 -25.1709,-78.19078 0,0 2.4383,-12.64523 24.6354,-36.95318 12.3456,-13.51961 28.0653,-15.37555 53.5554,-19.81547 28.7176,-5.00208 62.548,16.70322 72.8352,39.63094 7.8116,17.41006 12.8433,59.17821 2.1422,74.97746 -12.8459,18.96574 -24.6309,37.38122 -42.3087,51.94867 -19.4297,16.01109 -48.7666,28.20483 -69.622,42.30872 -20.6716,13.97959 -85.152998,13.92438 -85.152998,13.92438 z"
         id="path4309"
         inkscape:connector-curvature="0"
         sodipodi:nodetypes="cssssssssssscssssssscc" />
    </g>
  </g>
</svg>
